<?xml version="1.0" standalone="no"?>
<!DOCTYPE svg PUBLIC "-//W3C//DTD SVG 1.1//EN" "http://www.w3.org/Graphics/SVG/1.1/DTD/svg11.dtd" >
<svg xmlns="http://www.w3.org/2000/svg">
<metadata>Generated by IcoMoon</metadata>
<defs>
<font id="icomoon" horiz-adv-x="1024">
<font-face units-per-em="1024" ascent="960" descent="-64" />
<missing-glyph horiz-adv-x="1024" />
<glyph unicode="&#x20;" horiz-adv-x="512" d="" />
<glyph unicode="&#xe900;" d="M717.2 554.2c28.7 0 54.9-8 74.3-20.8 22.9-15.3 37.1-37.4 37.1-62.8h-0.1c0-25.4-14.1-47.5-36.8-62.7l-0.1-0.1c-19.4-12.9-45.7-21-74.3-21-28.5 0-54.8 8-74.3 21h-0.1c-22.8 15.2-36.9 37.4-36.9 62.8s14.1 47.5 36.8 62.7l0.1 0.1c19.4 12.9 45.7 20.8 74.3 20.8zM760.1 485.9c-10.6 7.1-25.8 11.5-42.8 11.5-17.1 0-32.2-4.4-42.8-11.5-7.2-4.8-11.6-10.2-11.6-15.3 0-5 4.5-10.5 11.7-15.3v-0.1c10.5-7 25.6-11.3 42.8-11.3s32.3 4.3 42.8 11.4c7.1 4.8 11.6 10.3 11.6 15.3h-0.1c-0.2 5.2-4.6 10.6-11.6 15.3z" />
<glyph unicode="&#xe901;" d="M855 113.4c10.5-11.7 9.6-29.7-2.1-40.2s-29.7-9.6-40.2 2.1c-176.8 196.5-303.3 329.1-408.1 382.7-95.6 48.9-175.4 27.9-267.4-75.9-10.4-11.8-28.4-12.8-40.1-2.5-11.8 10.4-12.8 28.4-2.5 40.1 112.7 127.1 213 151.6 335.8 88.8 113.5-57.9 243.7-194.1 424.6-395.1z" />
<glyph unicode="&#xe902;" d="M882.2 334.7c14.9 4.9 31-3.3 35.9-18.3 4.9-14.9-3.3-31-18.3-35.9-257.3-83.7-438.1-136.6-565.3-130.1-137.7 7-212.4 78.4-246.4 244.9-3.1 15.4 6.8 30.4 22.2 33.5s30.4-6.8 33.5-22.2c27.8-135.8 86.4-193.9 193.6-199.4 117.7-6 293.5 45.7 544.8 127.5zM606.8 810.3c19.8 0 38-5.6 51.5-14.6h0.1c17-11.3 27.5-28.1 27.5-47.6h-0.1c0-19.5-10.5-36.2-27.4-47.4v-0.1c-13.6-9.1-31.9-14.7-51.6-14.7-19.6 0-37.9 5.6-51.5 14.7l-0.1 0.1c-16.9 11.3-27.4 28-27.4 47.5s10.5 36.2 27.4 47.5v0.1c13.6 9.1 31.9 14.7 51.6 14.7v-0.2zM626.8 748.3c-4.8 3.2-11.8 5.1-20 5.1v-0.1c-8.2 0-15.2-1.9-19.9-5.1h-0.1l-0.2-0.1 0.2-0.1c4.7-3.1 11.8-5.1 20-5.1s15.2 1.9 19.9 5.1l0.1-0.1 0.2 0.1-0.2 0.3zM629 748.1h-0.1c0 0.5-0.2 0.2-0.7 0 0.5-0.1 0.8-0.4 0.8 0zM584.7 748.1c0-0.5 0.3-0.2 0.7 0-0.5 0.2-0.7 0.5-0.7 0zM386 699.9c19.8 0 38-5.6 51.5-14.5h0.1c17-11.3 27.5-28.1 27.5-47.6h-0.1c0-19.5-10.5-36.2-27.4-47.5v-0.1c-13.6-9.1-31.9-14.7-51.6-14.7-19.6 0-37.9 5.6-51.5 14.7l-0.1 0.1c-16.9 11.3-27.4 28-27.4 47.5 0 19.4 10.5 36.2 27.4 47.5v0.1c13.6 9 31.9 14.6 51.6 14.6v-0.1zM406 637.9c-4.8 3.2-11.8 5.1-20 5.1v-0.1c-8.2 0-15.2-1.9-19.9-5.1h-0.1l-0.2-0.1 0.2-0.1c4.7-3.1 11.8-5.1 20-5.1s15.2 1.9 19.9 5.1l0.1-0.1 0.2 0.1-0.2 0.3zM408.2 637.7h-0.1c0 0.5-0.2 0.2-0.7 0 0.5-0.1 0.8-0.4 0.8 0zM363.9 637.7c0-0.5 0.3-0.2 0.7 0-0.5 0.2-0.7 0.5-0.7 0z" />
<glyph unicode="&#xe903;" d="M272 404.6c22.1 0 40.1-18 40.1-40.1s-18-40.1-40.1-40.1-40.1 17.9-40.1 40.1c0 22.1 18 40.1 40.1 40.1z" />
<glyph unicode="&#xe904;" horiz-adv-x="1110" d="M1079.18 938.513c-5.658 11.177-16.483 19.020-29.247 20.416l-0.166 0.015c-150.412 16.38-295.276-163.71-348.995-239.268-9.013-12.623-23.613-20.753-40.111-20.753-5.659 0-11.095 0.957-16.154 2.717l0.345-0.104v0.44c-8.533 2.951-19.066 5.726-29.854 7.777l-1.496 0.237c-17.329 3.529-37.247 5.548-57.637 5.548s-40.308-2.020-59.566-5.87l1.928 0.322c-12.254-2.265-22.787-5.041-33.005-8.5l1.655 0.486v-0.44c-4.714-1.656-10.15-2.612-15.809-2.612-16.499 0-31.098 8.131-40.010 20.604l-0.101 0.149c-54.335 75.558-199.463 255.648-349.171 239.268-13.088-1.238-24.085-9.131-29.668-20.218l-0.097-0.212c-23.073-45.881-70.803-181.058 27.828-367.136 13.534-25.066 21.488-54.865 21.488-86.522 0-12.225-1.186-24.173-3.45-35.735l0.191 1.169c-32.495-169.17-1.673-625.249 427.195-478.272 14.136 5.023 30.44 7.926 47.423 7.926 18.794 0 36.758-3.555 53.255-10.030l-0.99 0.342c427.547-164.854 460.571 310.335 428.164 479.769-2.197 10.671-3.455 22.936-3.455 35.493 0 31.266 7.796 60.71 21.55 86.497l-0.483-0.991c99.247 186.43 51.077 321.607 28.444 367.488z" />
<glyph unicode="&#xe905;" horiz-adv-x="1110" d="M598.971 144.886c0-23.865-19.374-55.92-43.239-55.92s-43.239 32.055-43.239 55.92c0 23.88 19.359 43.239 43.239 43.239s43.239-19.359 43.239-43.239v0z" />
<glyph unicode="&#xe906;" horiz-adv-x="1110" d="M592.102 143.917c0-20.519-16.38-46.938-36.546-46.938s-36.458 26.419-36.458 46.938c0.982 19.397 16.949 34.753 36.502 34.753s35.52-15.356 36.499-34.665l0.004-0.087z" />
<glyph unicode="&#xe907;" horiz-adv-x="1110" d="M76.491 898.356c3.372 5.816 9.568 9.665 16.664 9.665 3.314 0 6.431-0.84 9.152-2.318l-0.101 0.050c54.423-29.149 232.047-131.038 260.667-228.965 24.041-82.691-102.682-114.482-177.888-125.402-3.647-0.588-7.85-0.924-12.133-0.924-29.702 0-55.629 16.159-69.472 40.165l-0.206 0.388c-37.515 67.28-90.793 196.557-26.683 307.341zM1041.753 898.356c-3.372 5.816-9.568 9.665-16.664 9.665-3.314 0-6.431-0.84-9.152-2.318l0.101 0.050c-54.423-29.149-232.047-131.038-260.667-228.965-24.305-83.22 102.682-114.658 178.24-125.931 3.564-0.561 7.674-0.882 11.858-0.882 29.898 0 55.972 16.373 69.745 40.642l0.207 0.397c37.163 67.28 90.441 196.557 26.331 307.341zM232.803 215.425c-54.013-9.438-102.19-24.332-147.524-44.465l3.981 1.579c4.692-17.847 9.389-32.252 14.773-46.317l-1.035 3.078c61.732 45.705 129.805 86.126 129.805 86.126zM250.768 172.362c-34.257-10.039-86.126-49.404-129.013-85.862 7.214-14.042 14.29-25.796 22.040-37.050l-0.729 1.12c47.026 59.531 107.701 121.792 107.701 121.792zM243.107 261.042c-40.421 18.229-109.375 10.127-169.786-3.346 1.761-15.499 4.139-31.262 7.221-46.85 55.216 37.251 162.565 50.196 162.565 50.196z" />
<glyph unicode="&#xe908;" horiz-adv-x="1110" d="M555.555 88.966c-14.216-32.955-36.137-60.277-63.579-80.556l-0.531-0.375c-26.961-19.82-60.816-31.718-97.449-31.718-0.787 0-1.573 0.005-2.357 0.016l0.119-0.001c-18.65 0.126-36.607 2.884-53.584 7.92l1.362-0.347c-18.749 5.299-34.942 11.78-50.259 19.715l1.472-0.694c-32.227 16.808-60 36.374-84.84 59.096l0.299-0.27c25.541-18.103 54.64-34.969 85.249-49.125l3.431-1.423c28.4-13.312 61.574-21.46 96.55-22.362l0.32-0.007c0.024 0 0.053 0 0.081 0 34.746 0 67.058 10.421 93.981 28.308l-0.627-0.391c14.601 9.454 27.273 19.971 38.585 31.8l0.075 0.079c11.624 11.949 22.080 25.148 31.113 39.341l0.59 0.992zM555.555 88.966c9.636-15.005 20.087-28.059 31.74-39.93l-0.037 0.038c11.387-11.908 24.059-22.425 37.84-31.38l0.819-0.499c26.323-17.496 58.661-27.916 93.433-27.916 0.001 0 0.001 0 0.002 0v0c35.296 0.911 68.47 9.059 98.395 23.007l-1.526-0.639c34.064 15.463 63.167 32.188 90.477 51.3l-1.797-1.192c-24.542-22.621-52.315-42.329-82.407-58.238l-2.134-1.029c-13.821-7.241-29.984-13.721-46.838-18.564l-1.861-0.458c-15.614-4.684-33.57-7.442-52.15-7.573h-0.071c-0.666-0.010-1.453-0.015-2.241-0.015-36.662 0-70.544 11.897-97.998 32.042l0.463-0.324c-28.001 20.789-49.927 48.258-63.625 80.102l-0.486 1.269zM484.488 262.451l-7.573 5.988c-41.83 33.112-128.308 24.217-129.189 24.041h-0.881c-187.575 18.317-235.129 156.136-242.791 183.172l8.366 2.642c3.17-8.806 47.114-10.127 87.535-5.812 2.114 0 4.139 0.616 6.164 1.057 16.996 3.963 104.267 21.752 182.731-7.838 87.183-32.936 95.108-187.399 95.373-193.739zM375.554 302.607c0.201 0.001 0.439 0.001 0.677 0.001 10.369 0 20.611-0.544 30.699-1.605l-1.258 0.107c1.448-0.15 3.128-0.236 4.828-0.236 27.333 0 49.492 22.158 49.492 49.492 0 5.597-0.929 10.978-2.642 15.996l0.103-0.348c-12.945 38.748-35.225 77.848-71.684 91.762-75.47 28.444-162.125 11.096-178.24 7.397-1.849-0.44-3.699-0.705-5.636-0.969h-1.233c-25.043-2.577-44.411-23.562-44.411-49.071 0-13.007 5.035-24.837 13.263-33.649l-0.026 0.029c34.697-36.106 89.032-70.451 172.956-79.257 1.426-0.147 3.081-0.231 4.755-0.231s3.33 0.084 4.961 0.248l-0.206-0.017c5.020-0.176 13.298 0.352 23.601 0.352zM617.816 262.451v9.687c0 6.517 8.278 160.98 95.373 193.739 78.641 29.589 166.264 11.712 183.348 7.75 1.776-0.489 3.876-0.863 6.030-1.047l0.134-0.009c39.805-4.227 83.748-2.906 86.918 5.9l8.806-2.642c-7.662-27.388-55.216-165.207-242.967-183.524h-0.881c-0.881 0-87.359 8.806-129.189-24.041zM813.933 473.803c-1.124 0.016-2.451 0.026-3.781 0.026-33.375 0-65.376-5.883-95.022-16.668l1.933 0.615c-36.987-13.914-58.826-52.838-71.684-91.674-1.595-4.654-2.516-10.015-2.516-15.592 0-27.382 22.198-49.58 49.58-49.58 1.817 0 3.61 0.098 5.376 0.288l-0.219-0.019c8.869 0.879 19.169 1.38 29.587 1.38 8.182 0 16.292-0.309 24.319-0.916l-1.068 0.065c1.426-0.147 3.081-0.231 4.755-0.231s3.33 0.084 4.961 0.248l-0.206-0.017c83.836 9.423 138.171 43.503 172.956 79.257 8.21 8.772 13.252 20.599 13.252 33.602 0 25.528-19.431 46.517-44.31 48.985l-0.204 0.016h-0.616c-1.849 0-3.611 0.528-5.46 0.881-24.464 5.757-52.605 9.148-81.506 9.334l-0.128 0.001z" />
<glyph unicode="&#xe909;" horiz-adv-x="1036" d="M499.2 832l-486.4-147.2c-12.8-6.4-12.8-25.6 0-25.6l467.2-166.4c12.8-6.4 25.6-6.4 44.8 0l448 147.2c6.4 0 12.8 0 12.8-6.4v-313.6c0-6.4 12.8-12.8 19.2-12.8h12.8c6.4 0 19.2 6.4 19.2 12.8v300.8c0 32-19.2 57.6-44.8 64l-492.8 147.2z" />
<glyph unicode="&#xe90a;" horiz-adv-x="1036" d="M313.6 64c-121.6 0-224 102.4-224 224s102.4 217.6 224 217.6 224-102.4 224-224-102.4-217.6-224-217.6zM313.6 448c-89.6 0-160-70.4-160-160s70.4-160 160-160 160 70.4 160 160-70.4 160-160 160z" />
<glyph unicode="&#xe90b;" horiz-adv-x="1036" d="M697.6 64c-121.6 0-224 102.4-224 224s102.4 217.6 224 217.6 224-102.4 224-224-96-217.6-224-217.6zM697.6 448c-89.6 0-160-70.4-160-160s70.4-160 160-160 160 70.4 160 160-70.4 160-160 160z" />
<glyph unicode="&#xe90c;" horiz-adv-x="1036" d="M236.8 288c0-42.415 34.385-76.8 76.8-76.8s76.8 34.385 76.8 76.8v0c0 42.415-34.385 76.8-76.8 76.8s-76.8-34.385-76.8-76.8v0z" />
<glyph unicode="&#xe90d;" horiz-adv-x="1036" d="M620.8 288c0-42.415 34.385-76.8 76.8-76.8s76.8 34.385 76.8 76.8v0c0 42.415-34.385 76.8-76.8 76.8s-76.8-34.385-76.8-76.8v0z" />
<glyph unicode="&#xe90e;" horiz-adv-x="1036" d="M697.6 448v57.6c-83.2 0-153.6-44.8-192-108.8-38.4 64-108.8 108.8-192 108.8v-57.6c89.6 0 160-70.4 160-160s-70.4-160-160-160v-64c83.2 0 153.6 44.8 192 108.8-19.2 32-32 70.4-32 108.8h57.6c0-38.4-12.8-76.8-32-108.8 38.4-64 108.8-108.8 192-108.8v57.6c-89.6 0-160 70.4-160 160s76.8 166.4 166.4 166.4z" />
<glyph unicode="&#xe90f;" glyph-name="4" d="M402.452 667.073c7.576 0 13.712 6.115 13.712 13.711 0 7.564-6.136 13.679-13.712 13.679-7.596 0-13.7-6.114-13.7-13.679 0-0.012 0-0.025 0-0.039 0-7.551 6.121-13.672 13.672-13.672 0.010 0 0.020 0 0.030 0h-0.002zM621.558 694.463c-7.563 0-13.7-6.114-13.7-13.679 0-7.596 6.138-13.711 13.7-13.711s13.701 6.115 13.701 13.711c0 7.565-6.138 13.679-13.701 13.679zM484.637 266.66c14.541-13.040 40.217-13.040 54.737 0 7.288-6.52 16.877-10.451 27.424-10.451 22.629 0 41.060 18.379 41.060 41.062 0 7.595-6.115 13.701-13.681 13.701-7.563 0-13.701-6.106-13.701-13.701 0-7.523-6.178-13.681-13.678-13.681-7.543 0-13.723 6.157-13.723 13.681 0 0.013 0 0.029 0 0.044 0 7.543-6.114 13.657-13.657 13.657-0.015 0-0.031 0-0.046 0h0.002c-7.541 0-13.646-6.106-13.646-13.701 0-7.523-6.17-13.681-13.713-13.681s-13.701 6.157-13.701 13.681c0 7.595-6.114 13.701-13.678 13.701-0.011 0-0.025 0-0.038 0-7.551 0-13.673-6.122-13.673-13.673 0-0.010 0-0.020 0-0.030v0.002c0-7.523-6.159-13.681-13.701-13.681-7.522 0-13.681 6.157-13.681 13.681 0 7.595-6.137 13.701-13.7 13.701-7.575 0-13.68-6.106-13.68-13.701 0-22.683 18.432-41.062 41.061-41.062 0.022 0 0.048 0 0.073 0 10.523 0 20.12 3.966 27.377 10.485l-0.038-0.033zM484.637 338.36c0.021 0 0.045 0 0.070 0 10.519 0 20.108 3.98 27.345 10.516l-0.036-0.032c7.287-6.553 16.876-10.484 27.358-10.484 22.652 0 41.102 18.41 41.102 41.092 0 7.586-6.114 13.7-13.678 13.7-7.607 0-13.723-6.114-13.723-13.7 0-7.521-6.157-13.679-13.701-13.679-7.488 0-13.646 6.157-13.646 13.679 0 7.586-6.138 13.7-13.713 13.7-7.563 0-13.701-6.114-13.701-13.7 0-7.521-6.167-13.679-13.678-13.679-7.543 0-13.711 6.157-13.711 13.679 0 0.009 0 0.019 0 0.030 0 7.55-6.12 13.67-13.67 13.67-0.011 0-0.022 0-0.033 0h0.002c-7.565 0-13.681-6.114-13.681-13.7 0.001-22.681 18.432-41.092 41.094-41.092zM827.006 215.119h-130.892c17.898 16.332 34.197 32.674 47.389 49.293 0.064 0.183 0.255 0.203 0.361 0.385 0 0 0 0.053 0.021 0.053 48.754 61.44 64.84 125.47 50.352 199.438-12.019 61.368-50.352 110.843-92.028 124.032 25.868 22.606 42.615 55.465 42.615 92.465 0 34.486-15.021 64.86-38.226 87.212 10.589 4.709 24.505 13.605 32.408 30.044 10.399 21.659 7.223 48.783-9.416 80.798-2.345 4.549-7.011 8.235-12.273 7.362-5.137-0.022-9.844-2.994-12.125-7.565-3.175-6.295-9.077-12.965-16.643-19.815h-353.087c-7.564 6.851-13.52 13.521-16.642 19.815-2.301 4.571-6.978 7.543-12.177 7.565-5.796-1.151-9.865-2.813-12.22-7.362-16.641-32.015-19.815-59.139-9.408-80.798 7.874-16.312 21.607-25.164 32.218-29.97-23.012-22.319-38.045-52.768-38.045-87.286 0-37.032 16.748-69.858 42.669-92.518-41.519-13.211-80.053-62.687-92.092-123.979-14.531-74 1.609-137.998 50.392-199.491l0.055-0.053c13.264-16.674 29.659-33.208 47.707-49.625h-103.523c-1.15 0-1.874-0.949-2.939-1.206-1.076-0.255-2.152 0.257-3.175-0.255l-54.793-27.412c-4.603-2.301-7.574-7.052-7.574-12.22 0-5.188 2.972-9.951 7.574-12.253l54.793-27.379c1.971-1.045 4.070-1.46 6.114-1.46h103.938l-31.428-31.418c-4.368-4.379-5.264-11.048-2.228-16.449 1.716-3.069 44.725-75.396 217.337-75.396 172.592 0 215.547 72.327 217.316 75.396 3.048 5.401 2.151 12.070-2.218 16.449l-31.427 31.418h131.319c22.629 0 41.080 18.41 41.080 41.092s-18.45 41.093-41.079 41.093zM210.717 168.785l-10.483 5.241 10.483 5.22v-10.461zM767.387 458.973c6.265-32.046 8.311-67.663-5.155-107.092 3.281 48.453-4.604 108.978-48.092 159.731-4.965 5.752-13.593 6.34-19.304 1.513-5.774-4.932-6.415-13.583-1.513-19.306 68.651-80.083 33.921-193.588 26.464-214.982-3.409-4.197-6.201-8.266-10.015-12.56 4.964 43.851 6.86 113.706-21.715 161.286-3.834 6.5-12.313 8.599-18.771 4.709-6.457-3.856-8.608-12.271-4.688-18.739 35.030-58.372 15.727-163.674 12.53-179.603-0.618-0.511-1.003-0.947-1.535-1.458 2.174 77.985-20.199 114.933-40.25 147.917-14.767 24.322-27.486 45.341-27.486 81.236 0 61.291 22.734 95.916 67.503 102.893 1.811 0.256 3.645 0.438 5.498 0.438 35.583 0.001 75.215-48.539 86.529-105.983zM388.752 160.326v27.379c0 7.543 6.157 13.7 13.7 13.7 7.523 0 13.712-6.157 13.712-13.7v-27.379c0-7.543-6.188-13.712-13.712-13.712-7.543 0-13.7 6.169-13.7 13.712zM402.452 228.797c-9.844 0-18.59-3.941-25.643-9.769-4.965 79.444 15.234 114.188 35.285 147.203 15.448 25.516 31.449 51.83 31.449 95.395 0 46.917-11.942 77.345-28.892 97.108 13.807 1.386 26.996 4.71 39.119 10.335l48.582-48.636c2.632-2.684 6.158-4.017 9.662-4.017 3.506 0 7.032 1.333 9.664 4.017l48.57 48.636c12.102-5.625 25.313-8.896 39.057-10.335-16.918-19.763-28.831-50.19-28.831-97.108 0-43.565 16.005-69.879 31.408-95.395 20.028-33.016 40.207-67.832 35.242-147.15-7.072 5.774-15.767 9.716-25.568 9.716-10.611 0-20.070-4.271-27.381-10.941-7.309 6.67-16.768 10.941-27.379 10.941-12.061 0-22.672-5.399-30.15-13.678h-49.272c-7.5 8.278-18.112 13.678-30.15 13.678-10.611 0-20.073-4.271-27.381-10.941-7.317 6.669-16.778 10.941-27.391 10.941zM512.016 625.47c8.533-16.599 20.096-30.494 34.078-41.441l0.271-0.204-34.349-34.37-34.356 34.37c14.36 11.175 26.047 25.28 34.356 41.645zM511.888 735.544h0.203c-0.021-0.073-0.021-0.148-0.075-0.201-0.053 0.053-0.073 0.128-0.128 0.201zM553.075 160.326v27.379c0 7.543 6.18 13.7 13.723 13.7 7.5 0 13.678-6.157 13.678-13.7v-27.379c0-7.543-6.178-13.712-13.678-13.712-7.543 0-13.723 6.169-13.723 13.712zM607.858 160.326v27.379c0 7.543 6.158 13.7 13.7 13.7 7.544 0 13.701-6.157 13.701-13.7v-27.379c0-7.543-6.157-13.712-13.701-13.712-7.542 0-13.7 6.169-13.7 13.712zM443.544 187.705c0 7.543 6.158 13.7 13.681 13.7 7.542 0 13.701-6.157 13.701-13.7v-27.379c0-7.543-6.159-13.712-13.701-13.712-7.522 0-13.681 6.169-13.681 13.712v27.379zM498.315 187.705h27.414v-27.379h-27.414v27.379zM717.443 680.784c0-52.886-43.042-95.884-95.885-95.884-52.841 0-95.829 42.998-95.829 95.884 0 27.252 10.537 46.376 24.365 60.514l123.774 19.007c26.103-17.036 43.575-46.057 43.575-79.521zM714.077 845.545c4.475-14.287 4.644-26.283 0.316-35.381-7.436-15.704-26.525-19.997-26.463-19.997l-76.344-11.709c38.44 19.273 79.009 43.127 102.491 67.087zM512.016 831.43h138.692c-45.406-27.999-106.134-54.612-138.745-67.449-32.568 12.837-93.294 39.45-138.658 67.449h138.711zM309.616 810.164c-4.325 9.098-4.145 21.094 0.33 35.381 23.47-23.96 64.050-47.813 102.478-67.087l-75.759 11.634c-0.18 0-19.613 4.262-27.049 20.072zM306.569 680.784c0 33.464 17.463 62.484 43.159 79.594l124.297-19.123c13.754-14.095 24.29-33.165 24.29-60.471 0-52.886-43.008-95.884-95.862-95.884-52.852 0-95.884 42.998-95.884 95.884zM314.24 266.278c-3.856 4.294-6.594 8.362-10.025 12.56-7.511 21.394-42.412 134.696 26.464 214.982 4.912 5.722 4.219 14.374-1.502 19.306-5.698 4.912-14.35 4.239-19.305-1.513-43.499-50.701-51.372-111.224-48.144-159.68-13.403 39.432-11.357 75.024-5.094 107.040 11.306 57.444 50.883 105.984 86.531 105.984 1.811 0 3.674-0.182 5.443-0.438 44.82-6.978 67.556-41.603 67.556-102.893 0-35.895-12.764-56.914-27.487-81.236-20.049-32.984-42.423-69.932-40.27-147.917-0.565 0.511-0.95 0.947-1.513 1.458-3.196 15.929-22.502 121.23 12.508 179.603 3.876 6.468 1.788 14.883-4.71 18.739-6.393 3.89-14.851 1.791-18.793-4.709-28.564-47.58-26.613-117.435-21.659-161.286zM238.097 160.326v27.379h123.264v-27.379h-123.264zM699.032 90.904c-5.986-6.092-16.618-14.988-33.411-23.704l-20.688 20.638c-5.349 5.337-13.998 5.337-19.367 0-5.328-5.37-5.328-14.021 0-19.357l12.825-12.765c-11.313-4.016-24.396-7.564-39.312-10.577l-12.442 37.329c-2.431 7.201-10.123 11.038-17.346 8.694-7.181-2.408-11.037-10.187-8.673-17.345l10.994-32.953c-13.956-1.714-29.189-2.864-45.884-3.302v40.58c0 7.565-6.138 13.7-13.713 13.7-7.563 0-13.701-6.135-13.701-13.7v-40.58c-16.725 0.438-31.96 1.533-45.927 3.302l10.995 32.953c2.386 7.158-1.48 14.937-8.661 17.345-7.16 2.301-14.906-1.493-17.335-8.694l-12.455-37.329c-14.956 3.013-28.052 6.562-39.301 10.523l12.785 12.818c5.369 5.337 5.369 13.987 0 19.357-5.35 5.337-13.989 5.337-19.326 0l-20.69-20.69c-16.854 8.769-27.464 17.665-33.421 23.757l42.039 42.030h5.295c7.49-8.311 18.103-13.7 30.14-13.7 10.612 0 20.073 4.271 27.392 10.962 7.308-6.69 16.77-10.962 27.381-10.962 12.038 0 22.65 5.39 30.15 13.7h49.272c7.479-8.311 18.090-13.7 30.15-13.7 10.611 0 20.070 4.271 27.379 10.962 7.311-6.69 16.77-10.962 27.381-10.962 12.041 0 22.649 5.39 30.15 13.7h5.284l42.041-42.030zM785.924 160.326h-123.284v27.379h123.284v-27.379zM827.006 160.326h-13.7v27.379h13.7c7.543 0 13.701-6.157 13.701-13.679 0-7.542-6.158-13.7-13.701-13.7z" />
<glyph unicode="&#xe910;" d="M752.614 423.936c0 130.061-72.141 192.474-72.179 192.486h-336.87c-0.051-0.026-72.179-62.438-72.179-192.486 0-171.443 144.371-187.226 144.371-240.614 0-60.16-72.179-62.413-72.179-120.307 0 0 60.16 24.064 96.243 24.064 23.309 0 25.562-24.064 72.179-24.064s48.87 24.064 72.179 24.064c36.096 0 96.243-24.064 96.243-24.064 0 57.894-72.179 60.16-72.179 120.307 0 53.389 144.371 69.184 144.371 240.614z" />
<glyph unicode="&#xe911;" d="M848.858 279.565h-673.715c-26.573 0-48.128-21.517-48.128-48.128 0-26.573 21.542-48.128 48.128-48.128h673.728c26.573 0 48.128 21.542 48.128 48.128-0.013 26.611-21.555 48.128-48.141 48.128z" />
<glyph unicode="&#xe912;" d="M463.872 303.629c-13.299 0-24.064-10.765-24.064-24.064 0 13.299-10.79 24.064-24.064 24.064-13.299 0-24.064-10.765-24.064-24.064v-48.128c0-13.274 10.765-24.064 24.064-24.064 13.274 0 24.064 10.79 24.064 24.064 0-13.274 10.765-24.064 24.064-24.064s24.064 10.79 24.064 24.064v48.128c0 13.299-10.765 24.064-24.064 24.064zM608.243 303.629c-13.299 0-24.064-10.765-24.064-24.064 0 13.299-10.79 24.064-24.064 24.064-13.299 0-24.064-10.765-24.064-24.064v-48.128c0-13.274 10.765-24.064 24.064-24.064 13.274 0 24.064 10.79 24.064 24.064 0-13.274 10.765-24.064 24.064-24.064s24.064 10.79 24.064 24.064v48.128c0 13.299-10.765 24.064-24.064 24.064z" />
<glyph unicode="&#xe913;" d="M694.157 732.454c5.402 31.629 10.33 69.12 10.33 100.531-27.085 0-61.824-44.467-81.28-72.947-4.915 0.512-9.907 0.768-14.963 0.768-36.979 0-70.707-13.901-96.243-36.774-25.549 22.861-59.264 36.774-96.243 36.774-5.056 0-10.048-0.256-14.963-0.768-19.469 28.48-54.195 72.947-81.293 72.947 0-31.398 4.928-68.89 10.33-100.518-35.469-26.304-58.458-68.467-58.458-116.032 0-79.731 64.64-144.371 144.371-144.371 36.979 0 70.707 13.914 96.243 36.774 25.549-22.861 59.264-36.774 96.243-36.774 79.731 0 144.371 64.64 144.371 144.371 0.013 47.552-22.976 89.728-58.445 116.019z" />
<glyph unicode="&#xe914;" d="M608.243 712.678c-53.146 0-96.243-43.098-96.243-96.243 0 53.158-43.098 96.243-96.243 96.243s-96.243-43.098-96.243-96.243c0-53.146 43.098-96.243 96.243-96.243 23.245 0 44.57 8.243 61.197 21.965l35.046-70.093 35.046 70.093c16.64-13.722 37.952-21.965 61.197-21.965 53.146 0 96.243 43.098 96.243 96.243s-43.085 96.243-96.243 96.243z" />
<glyph unicode="&#xe915;" d="M415.757 664.55c-26.573 0-48.128-21.542-48.128-48.128s21.542-48.128 48.128-48.128c26.573 0 48.128 21.542 48.128 48.128s-21.555 48.128-48.128 48.128zM608.243 664.55c-26.573 0-48.128-21.542-48.128-48.128s21.542-48.128 48.128-48.128c26.573 0 48.128 21.542 48.128 48.128s-21.555 48.128-48.128 48.128z" />
<glyph unicode="&#xe916;" d="M66.215 315.729c0-182.619 199.857-330.661 446.393-330.661s446.393 148.042 446.393 330.661v0c0 182.619-199.857 330.661-446.393 330.661s-446.393-148.042-446.393-330.661v0z" />
<glyph unicode="&#xe917;" d="M615.486 431.463h-205.744l-360.053-148.798c51.436-181.864 222.89-181.864 274.327-181.864s137.162-82.666 188.598-82.666 137.162 82.666 188.598 82.666c51.436 0 222.89 0 274.327 181.864l-360.053 148.798z" />
<glyph unicode="&#xe918;" d="M314.219 398.397v-181.864c98.776 32.926 153.838-50.72 179.696-120.35 6.372-17.158 31.028-17.158 37.4 0 25.858 69.63 80.92 153.276 179.696 120.35v181.864h-396.793z" />
<glyph unicode="&#xe919;" d="M16.616 414.927c0-146.095 88.825-264.529 198.396-264.529s198.396 118.433 198.396 264.529v0c0 146.095-88.825 264.529-198.396 264.529s-198.396-118.433-198.396-264.529v0z" />
<glyph unicode="&#xe91a;" d="M222.389 190.076c-106.834 24.34-167.13 159.548-134.674 301.993 18.976 83.284 65.532 150.36 122.22 187.046-107.198-3.632-193.31-120.382-193.31-264.187 0-146.094 88.824-264.529 198.396-264.529 47.044 0 90.196 21.938 124.204 58.42-36.852-20.224-77.252-27.764-116.836-18.744z" />
<glyph unicode="&#xe91b;" d="M611.806 414.927c0-146.095 88.825-264.529 198.396-264.529s198.396 118.433 198.396 264.529v0c0 146.095-88.825 264.529-198.396 264.529s-198.396-118.433-198.396-264.529v0z" />
<glyph unicode="&#xe91c;" d="M802.842 190.076c106.834 24.34 167.13 159.548 134.674 301.993-18.976 83.284-65.532 150.36-122.22 187.046 107.198-3.632 193.31-120.382 193.31-264.187 0-146.094-88.824-264.529-198.396-264.529-47.044 0-90.196 21.938-124.204 58.42 36.85-20.224 77.25-27.764 116.836-18.744z" />
<glyph unicode="&#xe91d;" d="M661.406 365.329c0-0.003 0-0.006 0-0.010 0-54.786 44.413-99.198 99.198-99.198s99.198 44.413 99.198 99.198c0 0.003 0 0.007 0 0.010v0c0 0.003 0 0.006 0 0.010 0 54.786-44.413 99.198-99.198 99.198s-99.198-44.413-99.198-99.198c0-0.003 0-0.007 0-0.010v0z" />
<glyph unicode="&#xe91e;" d="M711.004 365.329c0-0.002 0-0.005 0-0.007 0-27.393 22.207-49.6 49.6-49.6s49.6 22.207 49.6 49.6c0 0.002 0 0.005 0 0.007v0c0 0.002 0 0.005 0 0.007 0 27.393-22.207 49.6-49.6 49.6s-49.6-22.207-49.6-49.6c0-0.002 0-0.005 0-0.007v0z" />
<glyph unicode="&#xe91f;" d="M165.413 365.329c0-54.786 44.413-99.198 99.198-99.198s99.198 44.413 99.198 99.198v0c0 54.786-44.413 99.198-99.198 99.198s-99.198-44.413-99.198-99.198v0z" />
<glyph unicode="&#xe920;" d="M562.214 216.533c0 27.394-22.206 49.6-49.6 49.6s-49.6-22.206-49.6-49.6c0 0 28.932-165.33 49.6-165.33 20.666 0 49.6 165.33 49.6 165.33z" />
<glyph unicode="&#xe921;" d="M215.011 365.329c0-27.393 22.207-49.6 49.6-49.6s49.6 22.207 49.6 49.6v0c0 27.393-22.207 49.6-49.6 49.6s-49.6-22.207-49.6-49.6v0z" />
<glyph unicode="&#xe922;" d="M512.613 776.372c-101.704 0-216.18-11.052-332.199-47.38 14.408-25.368 26.14-56.814 34.606-99.134 33.066-165.33 231.462-330.659 297.595-330.659s264.529 165.328 297.595 330.659c8.464 42.32 20.196 73.764 34.606 99.134-116.022 36.328-230.496 47.38-332.203 47.38z" />
<glyph unicode="&#xe923;" d="M0.090 910.92c-1.794 2.094 22.636-289.251 115.732-363.727 46.486-37.188 108.66-58.692 180.636-82.154-38.722 50.372-69.992 107.588-81.438 164.82-33.066 165.33-115.732 165.33-214.93 281.061zM1023.91 910.92c-73.706-85.99-137.21-108.432-179.098-181.928-14.408-25.368-26.14-56.814-34.606-99.134-11.404-57.020-42.478-114.038-81.004-164.276 71.268 23.25 132.85 44.71 178.974 81.612 93.1 74.478 117.528 365.821 115.734 363.727z" />
<glyph unicode="&#xe924;" glyph-name="1" d="M554.667 149.333v-42.667h-85.333v42.667c-93.867 0-170.667 76.8-170.667 170.667h85.333c0-46.933 38.4-85.333 85.333-85.333v170.667c-93.867 0-170.667 76.8-170.667 170.667s76.8 170.667 170.667 170.667v42.667h85.333v-42.667c93.867 0 170.667-76.8 170.667-170.667h-85.333c0 46.933-38.4 85.333-85.333 85.333v-170.667h17.067c29.867 0 68.267-17.067 98.133-42.667 34.133-29.867 59.733-76.8 59.733-128-4.267-93.867-81.067-170.667-174.933-170.667zM554.667 234.667c46.933 0 85.333 38.4 85.333 85.333s-38.4 85.333-85.333 85.333v-170.667zM469.333 661.333c-46.933 0-85.333-38.4-85.333-85.333s38.4-85.333 85.333-85.333v170.667z" />
</font>
</defs>
</svg>
